<svg width="65" height="91" viewBox="0 0 65 91" fill="none" xmlns="http://www.w3.org/2000/svg">
<g id="healthicons:nurse-outline">
<g id="Group">
<path id="Vector" d="M51.1875 24.6458V20.8542H47.3958V17.0625H43.6042V20.8542H39.8125V24.6458H43.6042V28.4375H47.3958V24.6458H51.1875Z" fill="#879083"/>
<path id="Vector_2" fill-rule="evenodd" clip-rule="evenodd" d="M59.3774 31.7874L63.1274 21.1594C64.1435 18.2777 62.6951 15.0169 59.6599 14.0557C56.1355 12.9372 50.3722 11.375 45.4999 11.375C40.6276 11.375 34.8643 12.9372 31.338 14.0557C28.3047 15.0188 26.8563 18.2796 27.8724 21.1594L31.6243 31.7874C30.6059 34.0962 30.1796 36.6225 30.3841 39.1376C30.5885 41.6526 31.4173 44.0769 32.7952 46.1908C34.1732 48.3047 36.0568 50.0414 38.2754 51.2436C40.494 52.4457 42.9775 53.0753 45.5009 53.0753C48.0242 53.0753 50.5077 52.4457 52.7263 51.2436C54.9449 50.0414 56.8285 48.3047 58.2065 46.1908C59.5844 44.0769 60.4132 41.6526 60.6176 39.1376C60.8221 36.6225 60.3958 34.0962 59.3774 31.7874ZM45.4999 15.1667C41.2532 15.1667 35.9658 16.5658 32.485 17.6692C31.6129 17.946 31.101 18.9166 31.448 19.8987L35.2852 30.7694C42.0855 28.6081 48.9143 28.6081 55.7147 30.7694L59.5518 19.8987C59.8988 18.9166 59.3869 17.946 58.5148 17.6711C55.034 16.5658 49.7447 15.1667 45.4999 15.1667ZM56.5071 35.0369C56.4064 35.0166 56.3056 34.988 56.2095 34.9516C49.0546 32.269 41.9452 32.269 34.7903 34.9516C34.6936 34.9881 34.5941 35.0166 34.4927 35.0369C34.0549 36.7188 34.0083 38.4786 34.3565 40.1813C34.7046 41.884 35.4383 43.4842 36.5012 44.8592C37.5641 46.2342 38.928 47.3474 40.488 48.1133C42.0481 48.8792 43.7629 49.2774 45.5009 49.2774C47.2388 49.2774 48.9536 48.8792 50.5137 48.1133C52.0737 47.3474 53.4376 46.2342 54.5005 44.8592C55.5634 43.4842 56.2971 41.884 56.6452 40.1813C56.9934 38.4786 56.9449 36.7188 56.5071 35.0369Z" fill="#879083"/>
<path id="Vector_3" d="M64.4583 64.4582H68.25V68.2498H64.4583V72.0415H60.6667V68.2498H56.875V64.4582H60.6667V60.6665H64.4583V64.4582Z" fill="#879083"/>
<path id="Vector_4" fill-rule="evenodd" clip-rule="evenodd" d="M31.9998 53.0835C31.9998 53.0835 11.375 59.5161 11.375 67.2397V79.6252H79.625V67.2397C79.625 59.5161 59.0002 53.0835 59.0002 53.0835L47.6783 61.0327C47.0402 61.4806 46.2796 61.7209 45.5 61.7209C44.7204 61.7209 43.9598 61.4806 43.3217 61.0327L31.9998 53.0835ZM59.6069 57.2922L49.8585 64.1362C48.5821 65.0324 47.0605 65.5132 45.5009 65.5132C43.9414 65.5132 42.4197 65.0324 41.1434 64.1362L31.3931 57.2922C28.6562 58.2514 25.98 59.3758 23.3794 60.6592C20.9224 61.884 18.674 63.2433 17.0928 64.6253C15.3847 66.1174 15.1667 67.0046 15.1667 67.2397V75.8335H75.8333V67.2397C75.8333 67.0046 75.6153 66.1174 73.9072 64.6234C72.326 63.2433 70.0776 61.884 67.6187 60.6574C65.428 59.5778 63.1836 58.6109 60.8942 57.7605C60.4202 57.5823 59.988 57.4287 59.6069 57.2922Z" fill="#879083"/>
</g>
</g>
</svg>
